<svg xmlns="http://www.w3.org/2000/svg" version="1.1" xmlns:xlink="http://www.w3.org/1999/xlink" width="1000" height="1000"><style>
    #light-icon {
      display: inline;
    }
    #dark-icon {
      display: none;
    }

    @media (prefers-color-scheme: dark) {
      #light-icon {
        display: none;
      }
      #dark-icon {
        display: inline;
      }
    }
  </style><g id="light-icon"><svg xmlns="http://www.w3.org/2000/svg" version="1.1" xmlns:xlink="http://www.w3.org/1999/xlink" width="1000" height="1000"><g><g transform="matrix(6.25,0,0,6.25,0,0)"><svg xmlns="http://www.w3.org/2000/svg" version="1.1" xmlns:xlink="http://www.w3.org/1999/xlink" width="160" height="160"><svg xmlns="http://www.w3.org/2000/svg" version="1.1" xmlns:xlink="http://www.w3.org/1999/xlink" viewBox="0 0 160 160">
  <!-- Generator: Adobe Illustrator 29.6.1, SVG Export Plug-In . SVG Version: 2.1.1 Build 9)  -->
  <defs>
    <style>
      .st0 {
        fill: #4068b2;
      }

      .st1 {
        display: none;
      }
    </style>
  </defs>
  <g id="Layer_1" class="st1">
    <image width="1199" height="1132" transform="translate(0 4) scale(.1)" xlink:href="../../../digital assets/OneDrive_1_2019-12-29 (6)/Logo_B4_FINAL-crop_symbol + B4.png"></image>
  </g>
  <g id="Layer_2">
    <path class="st0" d="M100.2,34.3l24.9-17.6-77.5,23.4-8.1-29.1-3.6,82.2-29.5-1.5,76.2,28.3-9.8,27.8,50.6-64,23.1,18.9-46.3-68.4ZM102.9,71.8l-8.5,20.9c-1.1,2.8-3.9,4.5-6.9,4.3l-22.2-1.7c-3-.2-5.5-2.3-6.2-5.3l-5.3-21.9c-.7-2.9.5-5.9,3.1-7.5l19-11.8c2.5-1.6,5.8-1.3,8.1.6l17,14.6c2.3,1.9,3,5.1,1.9,7.8Z"></path>
  </g>
</svg></svg></g></g></svg></g><g id="dark-icon"><svg xmlns="http://www.w3.org/2000/svg" version="1.1" xmlns:xlink="http://www.w3.org/1999/xlink" width="1000" height="1000"><g><g transform="matrix(6.25,0,0,6.25,0,0)"><svg xmlns="http://www.w3.org/2000/svg" version="1.1" xmlns:xlink="http://www.w3.org/1999/xlink" width="160" height="160"><svg id="Layer_1" xmlns="http://www.w3.org/2000/svg" version="1.1" viewBox="0 0 160 160">
  <!-- Generator: Adobe Illustrator 29.6.1, SVG Export Plug-In . SVG Version: 2.1.1 Build 9)  -->
  <defs>
    <style>
      .st0 {
        fill: #f0ebf4;
      }
    </style>
  </defs>
  <g id="Layer_2">
    <path class="st0" d="M100.2,34.3l24.9-17.6-77.5,23.4-8.1-29.1-3.6,82.2-29.5-1.5,76.2,28.3-9.8,27.8,50.6-64,23.1,18.9s-46.3-68.4-46.3-68.4ZM102.9,71.8l-8.5,20.9c-1.1,2.8-3.9,4.5-6.9,4.3l-22.2-1.7c-3-.2-5.5-2.3-6.2-5.3l-5.3-21.9c-.7-2.9.5-5.9,3.1-7.5l19-11.8c2.5-1.6,5.8-1.3,8.1.6l17,14.6c2.3,1.9,3,5.1,1.9,7.8Z"></path>
  </g>
</svg></svg></g></g></svg></g></svg>